<svg xmlns="http://www.w3.org/2000/svg" width="32" height="42" viewBox="0 0 32 42"><g><g><path fill="#5790de" d="M.95 32.976a.826.826 0 0 1-.831-.82V.82C.119.367.49 0 .95 0h30.327c.46 0 .832.367.832.82v2.461c0 .453-.372.82-.832.82a.827.827 0 0 1-.832-.82v-1.64H1.783v30.515c0 .453-.373.82-.832.82zM31.279 9.024c.46 0 .832.367.832.82v22.803l-.001.027c0 .01 0 .019-.002.028a.83.83 0 0 1-.013.103v.002a.824.824 0 0 1-.079.22l-.002.005a.868.868 0 0 1-.147.195l-8.656 8.532a.735.735 0 0 1-.061.055c-.01.009-.02.016-.032.023-.01.009-.022.017-.034.025-.013.009-.026.016-.04.024l-.03.017-.04.02-.034.015-.038.013-.038.014-.038.009-.041.01-.04.006-.04.006a.97.97 0 0 1-.069.003H.951a.826.826 0 0 1-.832-.82v-2.46c0-.454.372-.821.832-.821.46 0 .832.367.832.82v1.641H21.79v-7.712c0-.454.372-.82.832-.82h7.824V9.843c0-.453.372-.82.832-.82zm-2.01 24.443h-5.814v5.732zM7.96 25.33a.84.84 0 0 1-1.17-.124.812.812 0 0 1 .126-1.154c2.372-1.883 5.725-2.964 9.2-2.964 3.474 0 6.827 1.08 9.199 2.964.357.285.414.801.125 1.154a.835.835 0 0 1-1.17.124c-2.08-1.653-5.053-2.601-8.155-2.601-3.101 0-6.074.948-8.155 2.6zM25.38 8.853c.326.32.326.84 0 1.16l-1.88 1.854 1.88 1.854c.326.32.326.84 0 1.16a.836.836 0 0 1-1.177 0l-1.88-1.854-1.88 1.854a.84.84 0 0 1-1.177 0 .812.812 0 0 1 0-1.16l1.88-1.854-1.88-1.854a.812.812 0 0 1 0-1.16.84.84 0 0 1 1.177 0l1.88 1.854 1.881-1.854a.84.84 0 0 1 1.177 0zM6.85 14.881a.812.812 0 0 1 0-1.16l1.88-1.854-1.88-1.854a.812.812 0 0 1 0-1.16.84.84 0 0 1 1.177 0l1.88 1.853 1.88-1.853a.84.84 0 0 1 1.177 0c.325.32.325.84 0 1.16l-1.88 1.854 1.88 1.853c.325.32.325.84 0 1.16a.835.835 0 0 1-.588.24.836.836 0 0 1-.588-.24l-1.88-1.853-1.881 1.854a.84.84 0 0 1-1.177 0zM.951 36.257a.828.828 0 0 1-.832-.82c0-.452.374-.82.832-.82.458 0 .832.368.832.82 0 .452-.374.82-.832.82zM31.278 5.742c.458 0 .832.369.832.82 0 .452-.374.821-.832.821a.828.828 0 0 1-.832-.82c0-.452.374-.82.832-.82z"/></g></g></svg>