<svg xmlns="http://www.w3.org/2000/svg" width="36" height="41" viewBox="0 0 36 41"><g><g><path fill="#5790de" d="M36.11 12.564a3.284 3.284 0 0 1-1.334 2.628V41H1.452V15.192A3.284 3.284 0 0 1 .12 12.564c0-1.075.529-2.024 1.333-2.628V0h26.27l7.054 7v2.936a3.283 3.283 0 0 1 1.333 2.628zm-7.998-5.951h4.39l-4.39-4.356zM2.785 9.325a3.35 3.35 0 0 1 .667-.067h1.333a3.332 3.332 0 0 1 3.265 2.645h1.467a3.332 3.332 0 0 1 3.265-2.645h1.333a3.332 3.332 0 0 1 3.265 2.645h1.468a3.332 3.332 0 0 1 3.265-2.645h1.333a3.332 3.332 0 0 1 3.265 2.645h1.468a3.332 3.332 0 0 1 3.265-2.645h1.333c.228 0 .451.023.667.067v-1.39h-6.665V1.322H2.785zm21.328 3.9v-1.322h1.21a1.996 1.996 0 0 0-1.877-1.323h-1.333c-.867 0-1.6.555-1.877 1.323h1.21v1.323h-1.21a1.996 1.996 0 0 0 1.877 1.322h1.333c.868 0 1.601-.555 1.877-1.322zm-9.331 0v-1.322h1.21a1.996 1.996 0 0 0-1.877-1.323h-1.333c-.867 0-1.6.555-1.876 1.323h1.21v1.323h-1.21a1.995 1.995 0 0 0 1.876 1.322h1.333c.868 0 1.601-.555 1.877-1.322zM3.452 10.58c-1.103 0-2 .89-2 1.984 0 1.094.897 1.984 2 1.984h1.333c.867 0 1.6-.555 1.876-1.322h-1.21v-1.323h1.21a1.996 1.996 0 0 0-1.876-1.323zm29.992 5.224a3.35 3.35 0 0 1-.667.067h-1.333a3.332 3.332 0 0 1-3.265-2.645H26.71a3.332 3.332 0 0 1-3.265 2.645h-1.333a3.332 3.332 0 0 1-3.265-2.645H17.38a3.332 3.332 0 0 1-3.265 2.645h-1.333a3.332 3.332 0 0 1-3.265-2.645H8.05a3.332 3.332 0 0 1-3.265 2.645H3.452a3.35 3.35 0 0 1-.667-.067v23.873h30.659zm-.667-1.256c1.102 0 2-.89 2-1.984a1.994 1.994 0 0 0-2-1.984h-1.333c-.868 0-1.6.555-1.877 1.323h1.21v1.323h-1.21a1.996 1.996 0 0 0 1.877 1.322zm-8.664 10.703a1.983 1.983 0 0 1 1.333 1.862v9.258a1.994 1.994 0 0 1-2 1.984H12.782c-1.102 0-1.999-.89-1.999-1.984v-9.258c0-.861.56-1.589 1.333-1.862v-2.106c0-3.281 2.691-5.952 5.998-5.952 3.307 0 5.999 2.67 5.999 5.952zm-5.999-6.735c-2.572 0-4.665 2.076-4.665 4.629v1.984h9.33v-1.984c0-2.553-2.092-4.63-4.665-4.63zm5.999 8.597c0-.364-.3-.662-.667-.662H12.782a.665.665 0 0 0-.666.662v9.258c0 .364.3.661.666.661h10.664a.665.665 0 0 0 .667-.661zm-5.999.661c1.102 0 2 .89 2 1.984 0 .86-.56 1.588-1.333 1.862v4.09h-1.333v-4.09a1.982 1.982 0 0 1-1.333-1.862c0-1.094.897-1.984 2-1.984zm0 2.645a.665.665 0 0 0 .667-.661c0-.364-.3-.661-.667-.661a.665.665 0 0 0-.666.66c0 .365.3.662.666.662zM4.118 2.645h21.328v1.323H4.118zm0 2.645H22.78v1.323H4.118zm19.995 0h1.333v1.323h-1.333z"/></g></g></svg>