<svg xmlns="http://www.w3.org/2000/svg" width="44" height="40" viewBox="0 0 44 40"><g><g><path fill="#5790de" d="M42.549 33.567c.395 0 .716.32.716.715v2.144A3.582 3.582 0 0 1 39.683 40H3.859a3.582 3.582 0 0 1-3.582-3.574v-2.144c0-.394.32-.715.716-.715h.717V12.841a3.582 3.582 0 0 1 3.583-3.574h8.597v1.43H5.293c-1.188 0-2.15.96-2.15 2.144v20.726h2.866V17.13a3.583 3.583 0 0 1 3.582-3.574h7.165v1.43H9.59c-1.187 0-2.15.96-2.15 2.144v2.144h8.599v1.43H7.442v12.864h10.03c.308 0 .583.197.68.49l.553 1.655h6.132l.553-1.656a.716.716 0 0 1 .68-.489H36.1V20.703H26.07v-1.43H36.1V17.13a2.147 2.147 0 0 0-2.149-2.144h-7.165v-1.43h7.165a3.582 3.582 0 0 1 3.582 3.574v16.438H40.4V12.841a2.147 2.147 0 0 0-2.15-2.145h-8.597V9.267h8.597a3.583 3.583 0 0 1 3.583 3.574v20.726zm-.717 1.43H26.586l-.388 1.167a1.432 1.432 0 0 1-1.361.977h-6.131a1.433 1.433 0 0 1-1.36-.977l-.39-1.167H1.71v1.43c0 1.183.962 2.144 2.15 2.144h35.823c1.187 0 2.15-.96 2.15-2.145zM8.874 16.415h1.434v1.429H8.874zm2.867 0h1.433v1.429H11.74zm2.865 0h1.434v1.429h-1.434zm5.015-2.477a7.158 7.158 0 0 1-4.418-3.957c-1.585-3.616.07-7.83 3.695-9.411 3.626-1.58 7.85.07 9.434 3.686 1.585 3.617-.07 7.831-3.695 9.412v13.467a.713.713 0 0 1-.32.597l-2.148 1.43a.717.717 0 0 1-.905-.09L17.682 25.5a.714.714 0 0 1 0-1.01l1.659-1.655-1.643-1.639a.713.713 0 0 1 0-1.01l1.63-1.627-1.64-1.641a.713.713 0 0 1 0-1.01zm2.15-12.533a5.728 5.728 0 0 0-5.566 4.43 5.717 5.717 0 0 0 4.292 6.858.716.716 0 0 1 .558.698v.91a.715.715 0 0 1-.352.62l-1.498 1.493 1.64 1.633a.717.717 0 0 1 0 1.017l-1.627 1.623 1.627 1.623c.134.134.21.316.21.505 0 .2-.075.391-.21.537l-1.643 1.639 2.66 2.654 1.342-.892V13.182c0-.303.191-.573.477-.674a5.715 5.715 0 0 0 3.821-5.392c-.001-3.156-2.567-5.713-5.731-5.71zm0 8.577a2.862 2.862 0 0 1-2.866-2.859 2.862 2.862 0 0 1 2.866-2.859 2.862 2.862 0 0 1 2.866 2.859 2.862 2.862 0 0 1-2.866 2.859zm0-4.288c-.791 0-1.433.64-1.433 1.429 0 .79.642 1.43 1.433 1.43s1.433-.64 1.433-1.43c0-.79-.642-1.43-1.433-1.43z"/></g></g></svg>