<svg xmlns="http://www.w3.org/2000/svg" width="42" height="41" viewBox="0 0 42 41"><g><g><path fill="#5790de" d="M41.104.833a21.23 21.23 0 0 1-.993 9.48 21.287 21.287 0 0 1-5.067 8.085l-5.182 5.164-.965 7.454a.774.774 0 0 1-.22.448l-7.212 7.187a.78.78 0 0 1-1.314-.406l-1.01-5.434-1.072-1.068-1.235 2.273a.778.778 0 0 1-1.233.179l-8.65-8.62a.772.772 0 0 1 .18-1.23l2.28-1.23-1.071-1.068-5.453-1.007a.774.774 0 1 1-.408-1.31l7.211-7.186a.782.782 0 0 1 .45-.22l7.48-.962 5.182-5.164a21.376 21.376 0 0 1 8.113-5.05A21.433 21.433 0 0 1 40.428.16c.354.043.632.32.676.673zM15.82 13.156l-5.217.67-5.98 5.96 3.835.707zM16.922 30.6l-6.364-6.342-1.77.956 7.175 7.15zm11.14-5.244L20.7 32.693l.71 3.82 5.98-5.957zm5.882-8.054a19.727 19.727 0 0 0 4.613-7.261 9.28 9.28 0 0 1-7.368-7.343 19.807 19.807 0 0 0-7.287 4.596L9.818 21.329l10.043 10.008zm5.08-8.75a19.7 19.7 0 0 0 .603-6.92 19.907 19.907 0 0 0-6.945.6 7.733 7.733 0 0 0 2.161 4.166 7.779 7.779 0 0 0 4.181 2.154zm-15.88 2.859a4.734 4.734 0 0 1 6.67 0 4.695 4.695 0 0 1 0 6.647 4.713 4.713 0 0 1-3.336 1.375 4.708 4.708 0 0 1-3.335-1.375 4.694 4.694 0 0 1 0-6.647zm5.57 5.552a3.147 3.147 0 0 0 0-4.457 3.156 3.156 0 0 0-2.236-.921 3.147 3.147 0 0 0-2.236 5.378 3.173 3.173 0 0 0 4.472 0zM10.396 30.908a.773.773 0 0 1 0 1.096l-6.67 6.647a.776.776 0 0 1-1.1 0 .773.773 0 0 1 0-1.095l6.67-6.648a.78.78 0 0 1 1.1 0zm1.026 2.119a.78.78 0 0 1 1.1 0 .773.773 0 0 1 0 1.095l-3.005 2.995a.777.777 0 0 1-1.1-1.095zM7.365 37.39a.782.782 0 0 1 .718.48.78.78 0 0 1-.275.93.786.786 0 0 1-.925-.027.781.781 0 0 1-.25-.87.785.785 0 0 1 .732-.513zm-2.2 1.87a.779.779 0 0 1 1.1.001.773.773 0 0 1 0 1.096l-.414.412a.776.776 0 0 1-1.1 0 .773.773 0 0 1 0-1.096zm-.56-6.819a.774.774 0 0 1 0 1.096L1.6 36.533a.778.778 0 0 1-1.1 0 .773.773 0 0 1 .001-1.096l3.005-2.995a.78.78 0 0 1 1.1 0zm1.24-.297a.788.788 0 0 1-.836-.324.782.782 0 0 1 .088-.964.784.784 0 0 1 .91-.155.78.78 0 0 1 .424.767.784.784 0 0 1-.585.676zm2.011-1.848a.777.777 0 0 1-1.099-1.095l.414-.412a.779.779 0 0 1 1.1 0 .773.773 0 0 1 0 1.095z"/></g></g></svg>